<?xml version="1.0" encoding="UTF-8" standalone="yes"?>
<!DOCTYPE svg PUBLIC "-//W3C//DTD SVG 1.1//EN" "http://www.w3.org/Graphics/SVG/1.1/DTD/svg11.dtd">
<svg xmlns:svg="http://www.w3.org/2000/svg" xmlns="http://www.w3.org/2000/svg" xmlns:xlink="http://www.w3.org/1999/xlink" version="1.1" width="263" height="390" viewBox="-0.5 -0.5 263 390" overflow="visible" enable-background="new -0.5 -0.5 263 390" xml:space="preserve" style="zoom: 1;"><path id="background" fill="#FFFFFF" d="M63.29,41.281C68.41,39.353,81,36.5,98.5,42.5C118,41,124,38,141.5,35S187,32.5,208,47 s41,15,45,57.5s-3.5,57.5-8,67s-58,23.5-67.5,27s-47.5,11.5-57,9s-70.5-13-79-19.5S8,128,10,119s14.5-51,24-59 S54.579,44.563,63.29,41.281z"></path><path id="foreground" d="M121.249,1.805c-5.576,0.128-11.451,1.974-15.683,5.622C98.043,13.912,90.53,20.65,90.79,29.471 c0.26,8.821,5.178,13.76,5.178,13.76s3.373,2.584,0,5.178c-3.372,2.595-43.316,28.025-41.241,80.429c0,0,1.039,13.638-0.518,28.166 c-1.118,10.437,2.55,23.091,4.716,29.424c0.054,0.061,1.063,2.664-1.221,1.146c-10.828-6.767-19.669-16.938-27.075-29.571 c-6.795-12.342-10.671-26.604-10.671-41.777c0-32.229,17.499-60.301,43.275-74.751C27.869,51.226,1.798,84.346,1.798,123.678 c0,3.007,0.147,5.987,0.444,8.914c0.288,6.782,1.036,17.604,2.94,21.934c2.854,6.486,2.589,20.486,2.589,22.821 c0,2.334,0.779,79.116,46.179,78.857c0,0,21.638,0.538,21.785-8.285c0.13-7.783-2.091-8.601-4.143-13.112 c-1.945-4.279-3.368-4.541-2.33-18.289c0,0,0.053-2.783,1.091-2.849s13.69,37.614,30.034,57.331 c16.343,19.716,32.69,21.785,45.142,21.785c0,0,23.34,0.005,23.34-11.669c0-11.675-10.635-7.011-10.635-44.107 c0-37.098,17.897-35.267,19.974-26.188c2.076,9.08,3.892,16.338,0.259,40.724c-3.632,24.386,6.233,27.241,15.313,27.241 c9.08,0,56.816,1.545,65.117-134.911c0,0,1.031-22.044-6.232-40.982c0,0,3.115,36.32-19.455,55.777s-35.545,16.607-35.545,16.607 s-10.885-0.788-15.294,4.66c-4.41,5.448-3.644,9.345-12.981,6.492c-9.34-2.854-9.379-5.181-17.939-4.143s-13.715,2.066-17.088-4.938 c-3.374-7.004-7.144-11.519-14.147-12.816c-7.005-1.297-37.782-15.939-36.951-57.22c0.778-38.395,18.161-51.634,18.161-51.634 s2.861-3.109,5.714-1.812c2.854,1.297,7.516,1.563,12.964-3.366c5.448-4.929,9.08-8.833,18.938-12.206c0,0,6.751-1.041,6.491-7.786 c-0.26-6.745-5.719-21.518-12.725-25.928C129.743,2.649,125.585,1.704,121.249,1.805z M144.791,187.48 c1.566-0.058,3.827,0.979,6.214,1.887c3.472,1.319,11.412,0.696,14.519,0.48c3.105-0.215,5.187,1.103,2.699,4.05 c-3.428,4.064-7.529,3.914-12.705,4.272s-10.727-4.716-10.727-4.716c-0.294-0.5-2.814-3.185-1.646-5.086 C143.51,187.774,144.079,187.507,144.791,187.48z M118.285,104.709c5.996-7.356,9.339-8.302,14.527-8.302 c5.189,0,12.388,3.327,14.528,11.415c2.334,8.82,3.521,10.172-4.889,20.016c-6.032,7.063-16.903,22.529-27.799,12.671 C103.757,130.651,107.803,117.568,118.285,104.709z M215.729,118.444c-3.514-8.815-6.42-10.721-11.369-12.277 c-4.949-1.557-12.813-0.542-17.282,6.531c-4.873,7.713-6.56,8.442-1.492,20.356c3.636,8.547,9.517,26.767,22.868,20.632 C221.805,147.55,221.87,133.856,215.729,118.444z M158.256,176.34c2.775-4.346,9.246-5.822,12.997-5.938 c4.908-0.151,4.838-4.385,4.838-4.385s0.347-4.322-17.378-6.045c-17.705-1.722-18.189,2.847-18.189,2.847s-0.836,4.151,3.963,5.188 c3.656,0.791,9.714,3.463,11.683,8.204C156.557,177.361,157.652,177.384,158.256,176.34z M241.863,69.927 c-2.979,0.973-7.649,0.713-12.518-4.789c-4.869-5.502-8.048-9.772-17.472-14.216c0,0-6.588-1.778-5.583-8.453 c1.005-6.675,8.057-20.767,15.507-24.375c7.45-3.607,19.998-1.425,26.757,5.854c6.758,7.279,13.487,14.816,12.252,23.553 c-1.234,8.737-6.679,13.09-6.679,13.09l0.095,0.015C251.629,63.979,241.863,69.927,241.863,69.927z"></path><path id="WWF" d="M10.162,318.662L10.162,318.662H23.37c0,0,3.422-0.62,4.77,2.852c1.587,4.092,8.123,30.316,8.123,30.316 l9.363-13.855c0,0-3.819-19.404,2.876-19.313c8.071,0.108,12.566,0,12.566,0s3.216-0.308,5.228,5.054 c2.369,6.314,8.135,28.541,8.135,28.541l13.327-30.375c0,0,1.834-3.219,4.77-3.219c3.118,0,5.092,2.186,4.402,4.688 c-1.05,3.81-23.113,61.818-23.113,61.818s-1.468,3.484-4.586,3.484c-3.119,0-4.403-1.834-6.054-6.053 c-1.651-4.219-12.107-32.469-12.107-32.469l-15.776,35.771c0,0-1.192,2.75-3.669,2.75c-2.935,0-4.036-1.283-5.503-4.035 c-1.468-2.751-19.995-55.766-19.995-55.766S2.457,318.662,10.162,318.662z M107.705,318.662L107.705,318.662h13.208 c0,0,3.422-0.62,4.77,2.852c1.587,4.092,8.124,30.316,8.124,30.316l9.361-13.855c0,0-3.818-19.404,2.876-19.313 c8.07,0.108,12.565,0,12.565,0s3.217-0.308,5.228,5.054c2.37,6.314,8.136,28.541,8.136,28.541l13.326-30.375 c0,0,1.834-3.219,4.77-3.219c3.119,0,5.093,2.186,4.402,4.688c-1.049,3.81-23.113,61.818-23.113,61.818s-1.467,3.484-4.586,3.484 s-4.401-1.834-6.054-6.053c-1.651-4.219-12.106-32.469-12.106-32.469l-15.776,35.771c0,0-1.192,2.75-3.669,2.75 c-2.935,0-4.036-1.283-5.503-4.035c-1.468-2.751-19.995-55.766-19.995-55.766S100,318.662,107.705,318.662z M205.322,388.652 c0,0-4.54,0.385-4.54-6.75c0-7.133,0-58.889,0-58.889s0-4.41,6.485-4.41s44.361,0,44.361,0s5.375-0.26,5.375,4.93 s-4.986,4.67-4.986,4.67h-26.461c0,0-3.113,0-3.113,2.982c0,2.983,0,14.527,0,14.527h20.365c0,0,5.504,0,5.504,4.281 c0,4.279-4.597,4.54-4.597,4.54h-21.401v28.317c0,0,0.315,5.803-3.445,5.803C216.273,388.652,205.322,388.518,205.322,388.652z"></path></svg>